# xmcd CD database file
#
# Track frame offsets:
#	150
#	18304
#	34987
#	54928
#	70242
#	83882
#	102761
#	118929
#	137142
#	155281
#	173821
#	194405
#
# Disc length: 2888 seconds
#
# Revision: 0
# Processed by: cddbd v1.5.1PL2 Copyright (c) Steve Scherf et al.
# Submitted via: freeDB plugin v1.0
#
DISCID=9e0b460c
DTITLE=アーティスト情報なし - アルバム情報なし (2005/10/14 22:40:46)
DYEAR=1900
DGENRE=Rock
TTITLE0=F.L.D.
TTITLE1=row,row,row
TTITLE2=スコール
TTITLE3=レールの行方
TTITLE4=君がため
TTITLE5=雑走
TTITLE6=春雨
TTITLE7=足跡
TTITLE8=大切なもの
TTITLE9=日付けのない日記
TTITLE10=僕らだけの歌
TTITLE11=夢追い人
EXTD=
EXTT0=
EXTT1=
EXTT2=
EXTT3=
EXTT4=
EXTT5=
EXTT6=
EXTT7=
EXTT8=
EXTT9=
EXTT10=
EXTT11=
PLAYORDER=
